<svg width="107" height="28" viewBox="0 0 107 28" fill="none" xmlns="http://www.w3.org/2000/svg">
<path d="M34.3316 4.32643C34.3316 5.1485 34.1024 5.8069 33.6509 6.29793C33.1317 6.88002 32.4556 7.17292 31.627 7.17292C30.8351 7.17292 30.1589 6.8751 29.6043 6.28808C29.0485 5.69245 28.7711 4.96145 28.7711 4.08646C28.7711 3.21147 29.0485 2.48047 29.6043 1.88976C30.1589 1.29782 30.8351 1 31.627 1C32.0212 1 32.3971 1.08738 32.7558 1.24982C33.1134 1.4135 33.4045 1.63501 33.6153 1.90822L33.1363 2.42755C32.7684 1.96113 32.2676 1.731 31.627 1.731C31.0494 1.731 30.5486 1.9476 30.1234 2.38448C29.7028 2.82259 29.492 3.38991 29.492 4.08646C29.492 4.783 29.7028 5.35525 30.1234 5.79336C30.5486 6.22532 31.0494 6.44684 31.627 6.44684C32.2401 6.44684 32.7558 6.22532 33.1627 5.78844C33.4308 5.49924 33.5832 5.10051 33.6234 4.59102H31.627V3.87971H34.2903C34.3224 4.03354 34.3316 4.18245 34.3316 4.32643Z" fill="white"/>
<path fill-rule="evenodd" clip-rule="evenodd" d="M31.627 1.3125C30.924 1.3125 30.3296 1.57268 29.8323 2.10343C29.3355 2.63139 29.0836 3.28423 29.0836 4.08646C29.0836 4.88807 29.3347 5.54085 29.8321 6.07417C30.3295 6.60028 30.9241 6.86042 31.627 6.86042C32.3725 6.86042 32.9617 6.60117 33.4176 6.08993L33.4208 6.08638C33.8082 5.66512 34.0191 5.08829 34.0191 4.32643C34.0191 4.28117 34.0181 4.2365 34.0157 4.19221H31.9395V4.27852H33.9614L33.9349 4.61555C33.891 5.17343 33.7208 5.64613 33.3918 6.00092C32.9242 6.50303 32.3244 6.75934 31.627 6.75934C30.959 6.75934 30.3798 6.49932 29.9007 6.01258L29.898 6.0098C29.413 5.50459 29.1795 4.85043 29.1795 4.08646C29.1795 3.32181 29.4134 2.67284 29.898 2.16806L29.8995 2.16652C30.3803 1.67249 30.9606 1.4185 31.627 1.4185C32.2246 1.4185 32.733 1.5989 33.1353 1.96772L33.1922 1.90602C33.039 1.76196 32.8501 1.63673 32.6263 1.53423C32.3052 1.38889 31.9733 1.3125 31.627 1.3125ZM29.3762 1.67608C29.9882 1.02295 30.7462 0.6875 31.627 0.6875C32.069 0.6875 32.4886 0.785766 32.8847 0.965152L32.8859 0.965674C33.282 1.14702 33.6162 1.3979 33.8627 1.71728L34.0239 1.92615L33.1177 2.9086L32.8909 2.62107C32.5878 2.23674 32.1811 2.0435 31.627 2.0435C31.1386 2.0435 30.7175 2.22246 30.3481 2.60166C29.992 2.973 29.8045 3.45845 29.8045 4.08646C29.8045 4.71479 29.9922 5.2047 30.3475 5.57554C30.7184 5.95178 31.1404 6.13434 31.627 6.13434C32.1557 6.13434 32.5877 5.94722 32.9337 5.57575C33.0863 5.41113 33.1995 5.19173 33.263 4.90352H31.3145V3.56721H34.5444L34.5963 3.8159C34.6342 3.99758 34.6441 4.16939 34.6441 4.32643C34.6441 5.2078 34.3971 5.94711 33.8825 6.5077C33.3004 7.15946 32.5378 7.48542 31.627 7.48542C30.7464 7.48542 29.9889 7.15016 29.3771 6.50271L29.3758 6.50129C28.7619 5.84347 28.4586 5.03447 28.4586 4.08646C28.4586 3.13871 28.7614 2.32954 29.3762 1.67608Z" fill="white"/>
<path d="M38.5564 1.8601H36.0546V3.73068H38.31V4.442H36.0546V6.31258H38.5564V7.03743H35.3464V1.13525H38.5564V1.8601Z" fill="white"/>
<path fill-rule="evenodd" clip-rule="evenodd" d="M35.0339 0.822754H38.8689V2.1726H36.3671V3.41818H38.6225V4.7545H36.3671V6.00008H38.8689V7.34993H35.0339V0.822754ZM35.6589 1.44775V6.72493H38.2439V6.62508H35.7421V4.1295H37.9975V4.04318H35.7421V1.5476H38.2439V1.44775H35.6589Z" fill="white"/>
<path d="M41.5391 7.03743H40.8308V1.8601H39.2963V1.13525H43.0747V1.8601H41.5391V7.03743Z" fill="white"/>
<path fill-rule="evenodd" clip-rule="evenodd" d="M38.9838 0.822754H43.3872V2.1726H41.8516V7.34993H40.5183V2.1726H38.9838V0.822754ZM39.6088 1.44775V1.5476H41.1433V6.72493H41.2266V1.5476H42.7622V1.44775H39.6088Z" fill="white"/>
<path d="M45.8091 7.03743V1.13525H46.5162V7.03743H45.8091Z" fill="white"/>
<path fill-rule="evenodd" clip-rule="evenodd" d="M45.4966 0.822754H46.8287V7.34993H45.4966V0.822754ZM46.1216 1.44775V6.72493H46.2037V1.44775H46.1216Z" fill="white"/>
<path d="M49.6501 7.03743H48.9476V1.8601H47.4074V1.13525H51.1904V1.8601H49.6501V7.03743Z" fill="white"/>
<path fill-rule="evenodd" clip-rule="evenodd" d="M47.0949 0.822754H51.5029V2.1726H49.9626V7.34993H48.6351V2.1726H47.0949V0.822754ZM47.7199 1.44775V1.5476H49.2601V6.72493H49.3376V1.5476H50.8779V1.44775H47.7199Z" fill="white"/>
<path d="M58.3439 6.27824C57.8018 6.8751 57.1302 7.17292 56.3292 7.17292C55.5235 7.17292 54.8519 6.8751 54.3099 6.27824C53.7689 5.6826 53.4996 4.9516 53.4996 4.08646C53.4996 3.22131 53.7689 2.49031 54.3099 1.89468C54.8519 1.29782 55.5235 1 56.3292 1C57.1256 1 57.7972 1.29782 58.3393 1.8996C58.8848 2.50016 59.1541 3.22624 59.1541 4.08646C59.1541 4.9516 58.8848 5.6826 58.3439 6.27824ZM54.8336 5.78352C55.2416 6.22532 55.7378 6.44684 56.3292 6.44684C56.9159 6.44684 57.4167 6.22532 57.8201 5.78352C58.227 5.34172 58.4332 4.77439 58.4332 4.08646C58.4332 3.39853 58.227 2.8312 57.8201 2.3894C57.4167 1.9476 56.9159 1.72608 56.3292 1.72608C55.7378 1.72608 55.2416 1.9476 54.8336 2.3894C54.4268 2.8312 54.2205 3.39853 54.2205 4.08646C54.2205 4.77439 54.4268 5.34172 54.8336 5.78352Z" fill="white"/>
<path fill-rule="evenodd" clip-rule="evenodd" d="M56.3292 1.3125C55.6118 1.3125 55.0242 1.57299 54.5412 2.10478L54.3099 1.89468L54.5412 2.10478C54.0569 2.63809 53.8121 3.29224 53.8121 4.08646C53.8121 4.88067 54.0569 5.53483 54.5412 6.06815C55.0242 6.59993 55.6118 6.86042 56.3292 6.86042C57.0416 6.86042 57.6294 6.60014 58.1125 6.06815C58.5968 5.53483 58.8416 4.88067 58.8416 4.08646C58.8416 3.2983 58.5976 2.64872 58.108 2.10972L58.1071 2.10875C57.6239 1.57236 57.0366 1.3125 56.3292 1.3125ZM54.0785 1.68458C54.6797 1.02264 55.4352 0.6875 56.3292 0.6875C57.2145 0.6875 57.9701 1.02312 58.5711 1.69C59.1722 2.352 59.4666 3.15441 59.4666 4.08646C59.4666 5.02253 59.1727 5.83038 58.5752 6.48833L58.5752 6.48833C57.9742 7.15006 57.2188 7.48542 56.3292 7.48542C55.4352 7.48542 54.6797 7.15027 54.0785 6.48833L54.0785 6.48833C53.481 5.83038 53.1871 5.02253 53.1871 4.08646C53.1871 3.15038 53.481 2.34254 54.0785 1.68459L54.0785 1.68458ZM54.604 2.17739C55.0695 1.67337 55.6481 1.41358 56.3292 1.41358C57.0047 1.41358 57.5887 1.67277 58.0505 2.1782C58.5174 2.68555 58.7457 3.33183 58.7457 4.08646C58.7457 4.84106 58.5174 5.48733 58.0505 5.99468C57.5888 6.50013 57.0047 6.75934 56.3292 6.75934C55.6481 6.75934 55.0695 6.49955 54.604 5.99553L54.6037 5.9952C54.1365 5.48778 53.908 4.84133 53.908 4.08646C53.908 3.33159 54.1365 2.68514 54.6037 2.17771L54.604 2.17739ZM55.0633 2.60127C54.717 2.97742 54.533 3.46557 54.533 4.08646C54.533 4.70739 54.717 5.19556 55.0634 5.57172C55.4139 5.95116 55.8276 6.13434 56.3292 6.13434C56.8269 6.13434 57.2443 5.95066 57.5894 5.5728L57.5902 5.57183C57.9366 5.19566 58.1207 4.70745 58.1207 4.08646C58.1207 3.46546 57.9366 2.97726 57.5902 2.60109L57.5894 2.60011C57.2443 2.22226 56.8269 2.03858 56.3292 2.03858C55.8275 2.03858 55.4138 2.22178 55.0633 2.60127Z" fill="white"/>
<path d="M60.1473 7.03743V1.13525H61.0069L63.6794 5.72556H63.7103L63.6794 4.59091V1.13525H64.3865V7.03743H63.6484L60.8498 2.22068H60.8189L60.8498 3.36026V7.03743H60.1473Z" fill="white"/>
<path fill-rule="evenodd" clip-rule="evenodd" d="M59.8348 0.822754H61.1865L63.3669 4.56772V0.822754H64.699V7.34993H63.4686L61.1623 3.38059V7.34993H59.8348V0.822754ZM60.4598 1.44775V6.72493H60.5373V3.3645L60.4978 1.90818H61.0297L63.8283 6.72493H64.074V1.44775H63.9919V4.58664L64.0314 6.03806H63.4997L60.8272 1.44775H60.4598Z" fill="white"/>
<path d="M53.3257 15.6569C51.1723 15.6569 49.4131 17.4167 49.4131 19.8447C49.4131 22.2531 51.1723 24.0314 53.3257 24.0314C55.4836 24.0314 57.2427 22.2531 57.2427 19.8447C57.2427 17.4167 55.4836 15.6569 53.3257 15.6569ZM53.3257 22.3823C52.1441 22.3823 51.1276 21.3351 51.1276 19.8447C51.1276 18.3347 52.1441 17.3059 53.3257 17.3059C54.5072 17.3059 55.5283 18.3347 55.5283 19.8447C55.5283 21.3351 54.5072 22.3823 53.3257 22.3823ZM44.789 15.6569C42.631 15.6569 40.8765 17.4167 40.8765 19.8447C40.8765 22.2531 42.631 24.0314 44.789 24.0314C46.9458 24.0314 48.7015 22.2531 48.7015 19.8447C48.7015 17.4167 46.9458 15.6569 44.789 15.6569ZM44.789 22.3823C43.6063 22.3823 42.5863 21.3351 42.5863 19.8447C42.5863 18.3347 43.6063 17.3059 44.789 17.3059C45.9705 17.3059 46.987 18.3347 46.987 19.8447C46.987 21.3351 45.9705 22.3823 44.789 22.3823ZM34.6307 16.9404V18.7199H38.5879C38.4721 19.7143 38.1627 20.4453 37.6882 20.9548C37.1106 21.5701 36.211 22.2531 34.6307 22.2531C32.1954 22.2531 30.2884 20.1426 30.2884 17.5274C30.2884 14.9123 32.1954 12.8018 34.6307 12.8018C35.9474 12.8018 36.9055 13.3543 37.6126 14.0706L38.7804 12.8165C37.7914 11.8025 36.4757 11.0235 34.6307 11.0235C31.2912 11.0235 28.4846 13.9413 28.4846 17.5274C28.4846 21.1135 31.2912 24.0314 34.6307 24.0314C36.4356 24.0314 37.7914 23.3964 38.8572 22.2051C39.9493 21.0323 40.2897 19.3832 40.2897 18.0517C40.2897 17.6382 40.2576 17.2579 40.2003 16.9404H34.6307ZM76.1692 18.32C75.8472 17.3835 74.8536 15.6569 72.8297 15.6569C70.8242 15.6569 69.1545 17.3539 69.1545 19.8447C69.1545 22.1903 70.807 24.0314 73.0223 24.0314C74.8135 24.0314 75.8472 22.8586 76.2724 22.1756L74.943 21.2243C74.4995 21.9208 73.8955 22.3823 73.0223 22.3823C72.1547 22.3823 71.5324 21.9553 71.1336 21.1135L76.3492 18.7962L76.1692 18.32ZM70.8517 19.7143C70.807 18.0997 72.0195 17.2727 72.8882 17.2727C73.5689 17.2727 74.1465 17.6382 74.3391 18.1612L70.8517 19.7143ZM66.6126 23.7767H68.327V11.4702L66.6126 11.4702V23.7767ZM63.8048 16.5897H63.7475C63.3625 16.0999 62.6279 15.6569 61.6973 15.6569C59.7445 15.6569 57.959 17.4979 57.959 19.8583C57.959 22.2051 59.7445 24.0314 61.6973 24.0314C62.6279 24.0314 63.3625 23.5847 63.7475 23.0801H63.8048V23.6807C63.8048 25.2817 63.0084 26.142 61.7237 26.142C60.6762 26.142 60.0264 25.3297 59.7583 24.6467L58.2673 25.315C58.697 26.425 59.835 27.791 61.7237 27.791C63.7338 27.791 65.4299 26.521 65.4299 23.4308V15.9116H63.8048V16.5897ZM61.844 22.3823C60.6625 22.3823 59.6735 21.3203 59.6735 19.8583C59.6735 18.3827 60.6625 17.3059 61.844 17.3059C63.0084 17.3059 63.9263 18.3827 63.9263 19.8583C63.9263 21.3203 63.0084 22.3823 61.844 22.3823ZM84.196 11.4702H80.0955V23.7767H81.8054V19.1137H84.196C86.0949 19.1137 87.9572 17.6382 87.9572 15.2914C87.9572 12.9457 86.0903 11.4702 84.196 11.4702ZM84.2407 17.4019H81.8054V13.182H84.2407C85.5173 13.182 86.2462 14.3204 86.2462 15.2914C86.2462 16.2439 85.5173 17.4019 84.2407 17.4019ZM94.8104 15.6335C93.575 15.6335 92.2903 16.2193 91.762 17.5176L93.2793 18.2006C93.6059 17.5176 94.2064 17.2961 94.8413 17.2961C95.7283 17.2961 96.628 17.8683 96.6417 18.8787V19.0079C96.3323 18.8159 95.6699 18.5316 94.8551 18.5316C93.2208 18.5316 91.5557 19.4977 91.5557 21.3006C91.5557 22.9497 92.8942 24.0117 94.399 24.0117C95.5496 24.0117 96.1845 23.4542 96.5833 22.8057H96.6417V23.757L98.2931 23.757V19.0362C98.2931 16.8543 96.7758 15.6335 94.8104 15.6335ZM94.6041 22.3774C94.0448 22.3774 93.2655 22.0796 93.2655 21.3351C93.2655 20.3825 94.2374 20.017 95.0785 20.017C95.8315 20.017 96.1845 20.1955 96.6417 20.4305C96.5076 21.5701 95.5943 22.3774 94.6041 22.3774ZM104.31 15.903L102.344 21.2378H102.286L100.254 15.903H98.41L101.463 23.3582L99.7211 27.5067H101.508L106.212 15.903H104.31ZM88.8969 23.7767H90.6114V11.4702H88.8969V23.7767Z" fill="white"/>
<path d="M0.425173 1.66314C0.155859 1.96588 0 2.43722 0 3.04762L0 24.8202C0 25.4306 0.155859 25.9019 0.425173 26.2047L0.491642 26.2711L11.8533 14.0754V13.7875L0.491642 1.59176L0.425173 1.66314Z" fill="url(#paint0_linear)"/>
<path d="M15.6363 18.1426L11.8533 14.0753V13.7873L15.6409 9.72004L15.7257 9.77296L20.2112 12.5136C21.4913 13.2914 21.4913 14.5712 20.2112 15.3539L15.7257 18.0897L15.6363 18.1426Z" fill="url(#paint1_linear)"/>
<path d="M15.7265 18.0897L11.8541 13.9313L0.426025 26.2045C0.851198 26.6845 1.54454 26.7423 2.333 26.2624L15.7265 18.0897Z" fill="url(#paint2_linear)"/>
<path d="M15.7265 9.77329L2.333 1.60058C1.54454 1.12555 0.851198 1.18339 0.426025 1.66334L11.8541 13.9316L15.7265 9.77329Z" fill="url(#paint3_linear)"/>
<defs>
<linearGradient id="paint0_linear" x1="7.32719" y1="25.0469" x2="-3.34892" y2="15.7607" gradientUnits="userSpaceOnUse">
<stop stop-color="#00A0FF"/>
<stop offset="0.0066" stop-color="#00A1FF"/>
<stop offset="0.2601" stop-color="#00BEFF"/>
<stop offset="0.5122" stop-color="#00D2FF"/>
<stop offset="0.7604" stop-color="#00DFFF"/>
<stop offset="1" stop-color="#00E3FF"/>
</linearGradient>
<linearGradient id="paint1_linear" x1="21.8781" y1="13.9299" x2="-0.305984" y2="13.9299" gradientUnits="userSpaceOnUse">
<stop stop-color="#FFE000"/>
<stop offset="0.4087" stop-color="#FFBD00"/>
<stop offset="0.7754" stop-color="#FFA500"/>
<stop offset="1" stop-color="#FF9C00"/>
</linearGradient>
<linearGradient id="paint2_linear" x1="13.6208" y1="15.4956" x2="-4.41347" y2="-0.190867" gradientUnits="userSpaceOnUse">
<stop stop-color="#FF3A44"/>
<stop offset="1" stop-color="#C31162"/>
</linearGradient>
<linearGradient id="paint3_linear" x1="-2.45066" y1="21.9335" x2="5.60065" y2="14.9304" gradientUnits="userSpaceOnUse">
<stop stop-color="#32A071"/>
<stop offset="0.0685" stop-color="#2DA771"/>
<stop offset="0.4762" stop-color="#15CF74"/>
<stop offset="0.8009" stop-color="#06E775"/>
<stop offset="1" stop-color="#00F076"/>
</linearGradient>
</defs>
</svg>
