<svg width="41" height="47" viewBox="0 0 41 47" fill="none" xmlns="http://www.w3.org/2000/svg">
<path d="M38.6481 20.0053L6.77296 1.16244C4.1831 -0.366834 0.215912 1.11717 0.215912 4.90368V42.5813C0.215912 45.9767 3.90057 48.0221 6.77296 46.3208L38.6481 27.4878C41.4915 25.8092 41.5006 21.6804 38.6481 20.0053ZM29.3645 26.2383L10.3834 37.4521C8.45637 38.5975 6.0114 37.2013 6.0114 34.9576V12.5211C6.0114 10.2774 8.45637 8.88485 10.3834 10.0275L29.3645 21.2503C29.7979 21.5066 30.1571 21.8714 30.4066 22.3087C30.6561 22.746 30.7874 23.2408 30.7874 23.7443C30.7874 24.2478 30.6561 24.7426 30.4066 25.1799C30.1571 25.6173 29.7979 25.9821 29.3645 26.2383Z" fill="white" fill-opacity="0.5"/>
<path d="M10.3833 10.0295L29.3644 21.2505C29.7979 21.5067 30.1571 21.8715 30.4066 22.3088C30.6561 22.7462 30.7873 23.241 30.7873 23.7445C30.7873 24.248 30.6561 24.7428 30.4066 25.1801C30.1571 25.6174 29.7979 25.9822 29.3644 26.2385L10.3833 37.4522C8.45632 38.5976 6.01135 37.2014 6.01135 34.9578V12.5212C6.01135 10.2794 8.45632 8.8868 10.3833 10.0295Z" fill="white"/>
</svg>
